<?xml version="1.0" standalone="no"?><!DOCTYPE svg PUBLIC "-//W3C//DTD SVG 1.1//EN" "http://www.w3.org/Graphics/SVG/1.1/DTD/svg11.dtd"><svg t="1660299311021" class="icon" viewBox="0 0 1024 1024" version="1.1" xmlns="http://www.w3.org/2000/svg" p-id="13441" xmlns:xlink="http://www.w3.org/1999/xlink" width="16" height="16"><defs><style type="text/css">@font-face { font-family: feedback-iconfont; src: url("//at.alicdn.com/t/font_1031158_u69w8yhxdu.woff2?t=1630033759944") format("woff2"), url("//at.alicdn.com/t/font_1031158_u69w8yhxdu.woff?t=1630033759944") format("woff"), url("//at.alicdn.com/t/font_1031158_u69w8yhxdu.ttf?t=1630033759944") format("truetype"); }
</style></defs><path d="M714.666667 256H138.666667a53.393333 53.393333 0 0 0-53.333334 53.333333v576a53.393333 53.393333 0 0 0 53.333334 53.333334h576a53.393333 53.393333 0 0 0 53.333333-53.333334V309.333333a53.393333 53.393333 0 0 0-53.333333-53.333333z m10.666666 629.333333a10.666667 10.666667 0 0 1-10.666666 10.666667H138.666667a10.666667 10.666667 0 0 1-10.666667-10.666667V309.333333a10.666667 10.666667 0 0 1 10.666667-10.666666h576a10.666667 10.666667 0 0 1 10.666666 10.666666z m213.333334-746.666666v565.333333a21.333333 21.333333 0 0 1-42.666667 0V138.666667a10.666667 10.666667 0 0 0-10.666667-10.666667H320a21.333333 21.333333 0 0 1 0-42.666667h565.333333a53.393333 53.393333 0 0 1 53.333334 53.333334z" fill="#ffffff" p-id="13442"></path></svg>