<?xml version="1.0" standalone="no"?><!DOCTYPE svg PUBLIC "-//W3C//DTD SVG 1.1//EN" "http://www.w3.org/Graphics/SVG/1.1/DTD/svg11.dtd"><svg t="1660292887658" class="icon" viewBox="0 0 1204 1024" version="1.1" xmlns="http://www.w3.org/2000/svg" p-id="19128" xmlns:xlink="http://www.w3.org/1999/xlink" width="18.8125" height="16"><defs><style type="text/css">@font-face { font-family: feedback-iconfont; src: url("//at.alicdn.com/t/font_1031158_u69w8yhxdu.woff2?t=1630033759944") format("woff2"), url("//at.alicdn.com/t/font_1031158_u69w8yhxdu.woff?t=1630033759944") format("woff"), url("//at.alicdn.com/t/font_1031158_u69w8yhxdu.ttf?t=1630033759944") format("truetype"); }
</style></defs><path d="M1241.702 391.831l2.1 1.663q-1.035-0.875-2.1-1.663zM-38.708 394.223l3.792-3.004c-4.553 3.167-8.267 7.216-10.964 11.922z" p-id="19129" fill="#cdcdcd"></path><path d="M94.676 1025.202c-0.335 2.246-0.686 4.478-0.991 6.738 0.632-2.397 1.004-5.153 1.025-7.992zM61.057 1057.29zM27.48 1021.133q0.365-2.523 0.758-5.046c-0.512 2.136-0.819 4.598-0.846 7.124z" p-id="19130" fill="#cdcdcd"></path><path d="M1178.516 1013.3c0.422 2.64 0.802 5.294 1.181 7.948-0.106-3.188-0.621-6.214-1.497-9.083zM1111.032 1030.643c-0.291-2.086-0.597-4.157-0.919-6.228 0.164 2.851 0.645 5.522 1.408 8.070z" p-id="19131" fill="#cdcdcd"></path><path d="M994.8 313.771h-46.018l-24.591 139.174h41.743q41.29 0 66.012-18.581t30.848-53.265q11.874-67.326-67.997-67.326z" p-id="19132" fill="#cdcdcd"></path><path d="M1149.333 204.992h-1092.943c-0.012 0-0.027 0-0.045 0-31.855 0-57.681 25.807-57.715 57.653v374.76c0.031 31.85 25.86 57.656 57.715 57.656 0.014 0 0.029 0 0.047 0h1092.94c0.012 0 0.027 0 0.045 0 31.855 0 57.681-25.807 57.715-57.653v-374.76c-0.031-31.85-25.86-57.656-57.715-57.656-0.014 0-0.029 0-0.047 0zM369.493 329.989q-27.712-21.877-76.005-21.877-32.088 0-54.608 13.404t-26.909 37.296q-3.734 21.179 7.907 34.451t54.345 36.347q47.111 24.549 63.3 49.094t10.779 55.176q-8.11 45.945-45.841 70.491t-97.067 24.474c-17.979-0.282-35.277-2.606-51.855-6.749q-22.166-4.73-33.28-13.291l9.072-51.34q13.55 13.973 38.811 22.972c14.958 5.68 32.253 8.984 50.316 9.019q72.64-0.004 81.872-52.25c0.54-2.515 0.852-5.406 0.852-8.369 0-6.535-1.509-12.719-4.2-18.219-5.953-11.315-15.433-20.387-26.978-25.774q-3.119-3.718-37.716-22.433-47.957-26.123-60.69-48.54t-7.643-51.239q7.686-43.465 47.155-68.916t92.748-25.436q52.114 0 74.254 12.616zM485.608 622.995l-64.35-348.854h50.086l45.9 272.748c1.11 6.694 1.743 14.408 1.743 22.27 0 3.177-0.105 6.33-0.309 9.456l1.145-0.425c6.745-22.026 17.444-41.077 31.384-57.255l126.109-246.778h48.278l-189.974 348.84h-50.086zM813.226 312.195l-48.131 272.748h33.546l-6.723 38.068h-112.307l6.723-38.068h33.546l48.131-272.748h-33.533l6.723-38.068h112.307l-6.723 38.068h-33.546zM1110.475 379.288q-9.072 51.355-51.253 83.21t-96.701 30.075h-45.331l-23.030 130.393h-45.141l61.594-348.824h99.283q56.635 0 83.137 27.246t17.4 77.93z" p-id="19133" fill="#cdcdcd"></path></svg>