<?xml version="1.0" standalone="no"?><!DOCTYPE svg PUBLIC "-//W3C//DTD SVG 1.1//EN" "http://www.w3.org/Graphics/SVG/1.1/DTD/svg11.dtd"><svg t="1660287811897" class="icon" viewBox="0 0 1024 1024" version="1.1" xmlns="http://www.w3.org/2000/svg" p-id="5267" xmlns:xlink="http://www.w3.org/1999/xlink" width="16" height="16"><defs><style type="text/css">@font-face { font-family: feedback-iconfont; src: url("//at.alicdn.com/t/font_1031158_u69w8yhxdu.woff2?t=1630033759944") format("woff2"), url("//at.alicdn.com/t/font_1031158_u69w8yhxdu.woff?t=1630033759944") format("woff"), url("//at.alicdn.com/t/font_1031158_u69w8yhxdu.ttf?t=1630033759944") format("truetype"); }
</style></defs><path d="M512 64.2c102.1 0 184.9 82.8 184.9 184.9v205.4c0 102.1-82.7 184.9-184.8 184.9-102.1 0-184.9-82.7-184.9-184.8V249.1C327.1 147 409.9 64.2 512 64.2z m0 65.7c-65.8 0-119.1 53.3-119.1 119.1v205.4c0 65.8 53.3 119.2 119.1 119.2s119.2-53.3 119.2-119.1V249.1c-0.1-65.8-53.4-119.2-119.2-119.2z" p-id="5268" fill="#ffffff"></path><path d="M191.6 475c0 177 143.5 320.4 320.4 320.4S832.4 652 832.4 475c0-18.2-14.7-32.9-32.8-32.9-18.2 0-32.9 14.7-32.9 32.8 0 140.7-114 254.7-254.7 254.7S257.3 615.7 257.3 475c0-18.2-14.7-32.9-32.9-32.9-18.1 0.1-32.8 14.8-32.8 32.9z" p-id="5269" fill="#ffffff"></path><path d="M479.1 762.6V895c0 18.2 14.7 32.9 32.9 32.9s32.9-14.7 32.9-32.9V762.6c0-18.2-14.7-32.9-32.8-32.9-18.2 0-33 14.7-33 32.9z" p-id="5270" fill="#ffffff"></path><path d="M409.3 959.8H617c18.2 0 32.9-14.7 32.9-32.8 0-18.2-14.7-32.9-32.8-32.9H409.3c-18.2 0-32.9 14.7-32.9 32.8 0 18.2 14.7 32.9 32.9 32.9z" p-id="5271" fill="#ffffff"></path></svg>