<?xml version="1.0" standalone="no"?><!DOCTYPE svg PUBLIC "-//W3C//DTD SVG 1.1//EN" "http://www.w3.org/Graphics/SVG/1.1/DTD/svg11.dtd"><svg t="1660296345987" class="icon" viewBox="0 0 1024 1024" version="1.1" xmlns="http://www.w3.org/2000/svg" p-id="13222" xmlns:xlink="http://www.w3.org/1999/xlink" width="16" height="16"><defs><style type="text/css">@font-face { font-family: feedback-iconfont; src: url("//at.alicdn.com/t/font_1031158_u69w8yhxdu.woff2?t=1630033759944") format("woff2"), url("//at.alicdn.com/t/font_1031158_u69w8yhxdu.woff?t=1630033759944") format("woff"), url("//at.alicdn.com/t/font_1031158_u69w8yhxdu.ttf?t=1630033759944") format("truetype"); }
</style></defs><path d="M256 128h640a96 96 0 0 1 96 96v448a96 96 0 0 1-96 96h-288v-64h288a32 32 0 0 0 32-32V224a32 32 0 0 0-32-32H256a32 32 0 0 0-32 32v224H160V224a96 96 0 0 1 96-96zM128 512h320a96 96 0 0 1 96 96v192a96 96 0 0 1-96 96H128a96 96 0 0 1-96-96v-192a96 96 0 0 1 96-96z m0 64h320a32 32 0 0 1 32 32v192a32 32 0 0 1-32 32H128a32 32 0 0 1-32-32v-192a32 32 0 0 1 32-32z" p-id="13223" fill="#ffffff"></path></svg>